<svg width="128" height="128" viewBox="0 0 128 128" fill="none" xmlns="http://www.w3.org/2000/svg">
  <rect width="128" height="128" rx="20" fill="url(#gradient128)"/>
  
  <!-- Main task list -->
  <rect x="16" y="20" width="96" height="10" rx="5" fill="white" opacity="0.9"/>
  <rect x="16" y="36" width="64" height="8" rx="4" fill="white" opacity="0.7"/>
  <rect x="16" y="48" width="80" height="8" rx="4" fill="white" opacity="0.7"/>
  <rect x="16" y="60" width="48" height="8" rx="4" fill="white" opacity="0.7"/>
  <rect x="16" y="72" width="72" height="8" rx="4" fill="white" opacity="0.7"/>
  <rect x="16" y="84" width="56" height="8" rx="4" fill="white" opacity="0.7"/>
  
  <!-- Status indicators -->
  <rect x="88" y="20" width="24" height="6" rx="3" fill="#00d4ff" opacity="0.8"/>
  <rect x="88" y="36" width="24" height="6" rx="3" fill="#ff6b6b" opacity="0.8"/>
  <rect x="88" y="48" width="24" height="6" rx="3" fill="#51cf66" opacity="0.8"/>
  <rect x="88" y="60" width="24" height="6" rx="3" fill="#ffd43b" opacity="0.8"/>
  <rect x="88" y="72" width="24" height="6" rx="3" fill="#00d4ff" opacity="0.8"/>
  <rect x="88" y="84" width="24" height="6" rx="3" fill="#51cf66" opacity="0.8"/>
  
  <!-- Large floating action button -->
  <circle cx="96" cy="96" r="16" fill="#00d4ff" filter="url(#glow)"/>
  <path d="M88 96l6 6l12-12" stroke="white" stroke-width="3" stroke-linecap="round" stroke-linejoin="round"/>
  
  <!-- Decorative elements -->
  <circle cx="24" cy="108" r="3" fill="#00d4ff" opacity="0.6"/>
  <circle cx="36" cy="112" r="2" fill="#ff6b6b" opacity="0.6"/>
  <circle cx="48" cy="108" r="2.5" fill="#51cf66" opacity="0.6"/>
  
  <!-- Performance bars -->
  <rect x="16" y="104" width="4" height="16" rx="2" fill="#00d4ff" opacity="0.3"/>
  <rect x="22" y="108" width="4" height="12" rx="2" fill="#00d4ff" opacity="0.5"/>
  <rect x="28" y="106" width="4" height="14" rx="2" fill="#00d4ff" opacity="0.4"/>
  <rect x="34" y="110" width="4" height="10" rx="2" fill="#00d4ff" opacity="0.6"/>
  
  <defs>
    <linearGradient id="gradient128" x1="0" y1="0" x2="128" y2="128" gradientUnits="userSpaceOnUse">
      <stop stop-color="#1e1e2e"/>
      <stop offset="0.5" stop-color="#2a2a3e"/>
      <stop offset="1" stop-color="#1a1a2e"/>
    </linearGradient>
    <filter id="glow" x="-50%" y="-50%" width="200%" height="200%">
      <feGaussianBlur stdDeviation="3" result="coloredBlur"/>
      <feMerge>
        <feMergeNode in="coloredBlur"/>
        <feMergeNode in="SourceGraphic"/>
      </feMerge>
    </filter>
  </defs>
</svg>
